<svg id="Слой_1" data-name="Слой 1" xmlns="http://www.w3.org/2000/svg" viewBox="0 0 414.86 36.16"><defs><style>.cls-1{fill:#0a4683;}</style></defs><polygon class="cls-1" points="184.99 35.65 216.4 35.65 216.4 29.54 191.09 29.54 191.09 21.13 213.71 21.13 213.71 15.05 191.09 15.05 191.09 6.7 216.4 6.7 216.4 0.59 184.99 0.59 184.99 35.65"/><path class="cls-1" d="M173.16,46.63a11.52,11.52,0,0,0-11.52-11.52H137.28V70.16h6.14v-12h15.72l6.91,12h7.11L165.8,57.37A11.53,11.53,0,0,0,173.16,46.63ZM161.81,52H143.42V41.24h18.39A5.13,5.13,0,0,1,167,46.63,5.1,5.1,0,0,1,161.81,52Z" transform="translate(-40.45 -34.51)"/><polygon class="cls-1" points="231.58 29.54 231.58 0.59 225.47 0.59 225.47 35.65 257.99 35.65 257.99 29.54 231.58 29.54"/><polygon class="cls-1" points="20.27 23.07 7.35 0.59 0 0.59 0 35.65 6.31 35.65 6.31 11.15 20.46 35.65 34.79 10.82 34.79 35.65 41.11 35.65 41.11 0.59 33.35 0.59 20.27 23.07"/><polygon class="cls-1" points="164.31 0.59 164.31 0.6 160.89 0.6 162.6 3.56 164.31 6.52 166.02 9.48 165.84 9.79 164.31 12.45 160.89 18.38 160.37 19.27 157.47 24.3 154.56 19.27 154.04 18.38 150.62 12.45 148.56 8.88 147.2 6.52 145.19 3.04 143.78 0.59 143.78 0.59 136.94 0.59 136.94 0.59 138.35 3.04 140.36 6.52 141.72 8.88 143.78 12.45 147.2 18.38 148.22 20.14 150.62 24.3 154.04 30.23 157.47 36.16 160.89 30.23 164.31 24.3 167.21 19.27 167.73 18.38 171.15 12.45 172.69 9.79 174.58 6.52 178 0.59 171.15 0.59 164.31 0.59"/><path class="cls-1" d="M88.77,70.16h7.31l3.16-5.62h20.47l3.16,5.62h7.06L109.35,34.51Zm13.68-11.37,6.86-12.14,7,12.14Z" transform="translate(-40.45 -34.51)"/><path class="cls-1" d="M305,68.9a3.09,3.09,0,0,1-1-2.42,3.25,3.25,0,0,1,.95-2.42,3.64,3.64,0,0,1,2.65-.92,3.51,3.51,0,0,1,2.55,1,3.17,3.17,0,0,1,1,2.37,3.1,3.1,0,0,1-1,2.44,4.06,4.06,0,0,1-5.12,0Z" transform="translate(-40.45 -34.51)"/><path class="cls-1" d="M328.44,68.44a17.38,17.38,0,0,1-6.56-3.56l3.39-4.47q4.64,3.92,11.84,3.91a14.56,14.56,0,0,0,6.4-1.13A3.49,3.49,0,0,0,345.75,60a3.2,3.2,0,0,0-.72-2.14,5.8,5.8,0,0,0-2.44-1.49,44.58,44.58,0,0,0-5-1.42,52,52,0,0,1-8.82-2.62,10.51,10.51,0,0,1-4.43-3.11A7.44,7.44,0,0,1,323,44.71a8.4,8.4,0,0,1,1.85-5.4,11.65,11.65,0,0,1,5.2-3.55,22,22,0,0,1,7.61-1.24,23.91,23.91,0,0,1,7.62,1.29A13.51,13.51,0,0,1,351,39.1l-3.39,4.43a15.39,15.39,0,0,0-9.94-3.5,13.3,13.3,0,0,0-6.12,1.18,3.66,3.66,0,0,0-2.26,3.35,3.09,3.09,0,0,0,.72,2.11,6.46,6.46,0,0,0,2.57,1.52,43.8,43.8,0,0,0,5.51,1.51,54.47,54.47,0,0,1,8.36,2.45,9.75,9.75,0,0,1,4.24,3A7.59,7.59,0,0,1,352,59.84,7.88,7.88,0,0,1,350.15,65a12,12,0,0,1-5.27,3.55,22.13,22.13,0,0,1-7.72,1.26A28,28,0,0,1,328.44,68.44Z" transform="translate(-40.45 -34.51)"/><path class="cls-1" d="M375.55,69.16h-6V40.7H355.89V35.19h33.29V40.7H375.55Z" transform="translate(-40.45 -34.51)"/><path class="cls-1" d="M392.53,69.16h-6.69l19.71-34.64h.1l19.71,34.64h-6.74l-3.09-5.46H395.62ZM405.6,46l-7.05,12.45H412.6Z" transform="translate(-40.45 -34.51)"/><path class="cls-1" d="M441.67,69.16h-6V40.7H422V35.19h33.29V40.7H441.67Z" transform="translate(-40.45 -34.51)"/></svg>